<?xml version="1.0" encoding="UTF-8" standalone="no"?>
<!-- Created with Inkscape (http://www.inkscape.org/) -->
<svg xmlns:svg="http://www.w3.org/2000/svg" xmlns="http://www.w3.org/2000/svg" version="1.0" width="238" height="50" id="svg2">
  <defs id="defs4"/>
  <path d="M 1.765625,47.46875 L 23.796875,1.65625 L 61.390625,1.65625 L 61.390625,7.0625 L 38.359375,7.0625 L 38.359375,21.15625 L 59.765625,21.15625 L 59.765625,26.53125 L 38.359375,26.53125 L 38.359375,42.0625 L 62.234375,42.0625 L 62.234375,47.46875 L 32.265625,47.46875 L 32.265625,34.25 L 14.578125,34.25 L 8.328125,47.46875 L 1.765625,47.46875 M 17.140625,28.875 L 32.265625,28.875 L 32.265625,7.0625 L 27.734375,7.0625 L 17.140625,28.875 M 119.92188,37.3125 C 118.88016,40.791673 117.10932,43.479171 114.60938,45.375 C 112.10932,47.270834 109.00517,48.218749 105.29688,48.21875 C 102.651,48.218749 100.32809,47.71875 98.328125,46.71875 C 96.348928,45.718752 94.557263,44.156253 92.953125,42.03125 C 90.786433,44.156253 88.588519,45.718752 86.359375,46.71875 C 84.151023,47.71875 81.765609,48.218749 79.203125,48.21875 C 75.619782,48.218749 72.828118,47.302084 70.828125,45.46875 C 68.848955,43.614587 67.859373,41.364589 67.859375,38.71875 C 67.859373,36.927094 68.369789,35.250012 69.390625,33.6875 C 70.432287,32.104182 71.869786,30.906267 73.703125,30.09375 C 75.557282,29.281268 78.505196,28.614602 82.546875,28.09375 C 85.671855,27.677103 88.296852,27.166687 90.421875,26.5625 C 90.442684,26.041688 90.4531,25.614605 90.453125,25.28125 C 90.4531,22.656275 89.901017,20.822943 88.796875,19.78125 C 87.71352,18.718779 85.807272,18.187529 83.078125,18.1875 C 81.265609,18.187529 79.734361,18.406279 78.484375,18.84375 C 77.234364,19.281278 76.307281,19.906278 75.703125,20.71875 C 75.119782,21.510443 74.630199,22.791691 74.234375,24.5625 L 68.765625,23.90625 C 69.348955,21.468776 70.182287,19.541695 71.265625,18.125 C 72.369785,16.687531 73.9427,15.562532 75.984375,14.75 C 78.026029,13.937534 80.411444,13.531284 83.140625,13.53125 C 86.619771,13.531284 89.421851,14.052117 91.546875,15.09375 C 92.776015,15.697948 93.807264,16.666697 94.640625,18 C 95.973928,16.541698 97.484343,15.437532 99.171875,14.6875 C 100.85934,13.9167 102.901,13.531284 105.29688,13.53125 C 108.67184,13.531284 111.46349,14.3542 113.67188,16 C 115.88016,17.62503 117.49474,19.781278 118.51562,22.46875 C 119.53641,25.156272 120.04682,27.802103 120.04688,30.40625 C 120.04682,30.8021 120.02599,31.437516 119.98438,32.3125 L 96.015625,32.3125 C 96.057261,35.312512 96.421844,37.489593 97.109375,38.84375 C 97.817676,40.197924 98.932258,41.333339 100.45312,42.25 C 101.99475,43.145838 103.68225,43.593754 105.51562,43.59375 C 107.66142,43.593754 109.47392,42.979171 110.95312,41.75 C 112.45307,40.52084 113.48432,38.791675 114.04688,36.5625 L 119.92188,37.3125 M 96.015625,27.6875 L 114.26562,27.6875 C 113.97392,24.395856 113.03642,21.989609 111.45312,20.46875 C 109.86974,18.947945 107.80724,18.187529 105.26562,18.1875 C 102.64059,18.187529 100.48434,19.020862 98.796875,20.6875 C 97.130177,22.354192 96.203095,24.687523 96.015625,27.6875 M 90.515625,30.8125 C 88.869769,31.520849 85.515605,32.281265 80.453125,33.09375 C 78.182279,33.447931 76.588531,33.97918 75.671875,34.6875 C 74.4427,35.666678 73.828117,36.947927 73.828125,38.53125 C 73.828117,40.010424 74.3802,41.260423 75.484375,42.28125 C 76.588531,43.281254 78.192696,43.781254 80.296875,43.78125 C 82.692691,43.781254 84.776023,43.187504 86.546875,42 C 88.338519,40.812507 89.505185,39.333341 90.046875,37.5625 C 90.35935,36.479178 90.5156,34.22918 90.515625,30.8125 M 170.70312,7.40625 L 170.70312,24.15625 L 178.73438,24.15625 C 181.13017,24.156273 182.81767,23.708357 183.79688,22.8125 C 184.77599,21.916692 185.34892,20.312527 185.51562,18 L 186.64062,18 L 186.64062,32.71875 L 185.51562,32.71875 C 185.26558,30.635434 184.92183,29.239602 184.48438,28.53125 C 184.06767,27.802103 183.35933,27.21877 182.35938,26.78125 C 181.88017,26.552104 180.67183,26.437521 178.73438,26.4375 L 170.70312,26.4375 L 170.70312,40.46875 C 170.70309,42.364588 170.776,43.500004 170.92188,43.875 C 171.06768,44.22917 171.36975,44.531253 171.82812,44.78125 C 172.28643,45.031252 173.10934,45.156252 174.29688,45.15625 L 179.98438,45.15625 C 182.25517,45.156252 184.00517,44.968753 185.23438,44.59375 C 186.46349,44.218753 187.65099,43.489587 188.79688,42.40625 C 190.31766,40.98959 191.56766,39.125008 192.54688,36.8125 L 193.73438,36.8125 L 190.35938,47.46875 L 158.54688,47.46875 L 158.54688,46.3125 L 160.14062,46.3125 C 161.86977,46.312501 163.1406,45.802085 163.95312,44.78125 C 164.45309,44.114587 164.70309,42.520838 164.70312,40 L 164.70312,31.0625 L 152.32812,31.0625 L 148.45312,38.34375 C 146.99479,41.093756 146.26561,42.895838 146.26562,43.75 C 146.26561,44.333336 146.57811,44.875003 147.20312,45.375 C 147.84894,45.854168 149.17186,46.166668 151.17188,46.3125 L 151.17188,47.46875 L 137.85938,47.46875 L 137.85938,46.3125 C 138.77605,46.291668 139.5573,46.093751 140.20312,45.71875 C 140.86979,45.343752 141.58854,44.666669 142.35938,43.6875 C 143.1302,42.708338 144.10936,41.11459 145.29688,38.90625 L 158.17188,14.8125 C 159.77603,11.833369 160.5781,9.8229543 160.57812,8.78125 C 160.5781,8.1146227 160.29685,7.5937899 159.73438,7.21875 C 159.02603,6.6979574 157.50519,6.3750411 155.17188,6.25 L 155.17188,5.09375 L 189.89062,5.09375 L 190.35938,14.40625 L 189.29688,14.40625 C 189.02599,12.260452 188.50516,10.625037 187.73438,9.5 C 187.17183,8.6875388 186.35933,8.0937894 185.29688,7.71875 C 184.69267,7.5104566 183.27599,7.4062901 181.04688,7.40625 L 170.70312,7.40625 M 164.70312,7.40625 L 153.54688,28.78125 L 164.70312,28.78125 L 164.70312,7.40625 M 218.42188,29.75 C 218.40102,30.812517 218.3906,31.583349 218.39062,32.0625 C 218.3906,36.250011 219.1406,39.229175 220.64062,41 C 222.14059,42.770838 224.05727,43.656254 226.39062,43.65625 C 228.41143,43.656254 230.24475,43.020838 231.89062,41.75 C 232.93225,40.937507 234.04683,39.281258 235.23438,36.78125 L 236.23438,37.46875 C 235.48433,40.843757 233.86975,43.656254 231.39062,45.90625 C 229.59893,47.53125 227.35934,48.343749 224.67188,48.34375 C 222.42184,48.343749 220.49477,47.854166 218.89062,46.875 C 218.1406,46.395834 216.98435,45.218752 215.42188,43.34375 C 215.17185,43.531254 214.59894,43.97917 213.70312,44.6875 C 212.49478,45.666668 211.68228,46.270835 211.26562,46.5 C 210.28644,47.0625 209.24478,47.510417 208.14062,47.84375 C 207.03644,48.177083 205.90104,48.343749 204.73438,48.34375 C 202.77604,48.343749 201.11979,47.65625 199.76562,46.28125 C 198.43229,44.885419 197.76562,43.187504 197.76562,41.1875 C 197.76562,39.375008 198.21354,37.833343 199.10938,36.5625 C 200.02604,35.291679 201.80729,33.97918 204.45312,32.625 C 207.70311,30.95835 210.5781,29.687518 213.07812,28.8125 L 213.07812,25.9375 C 213.0781,23.687524 212.66144,22.104192 211.82812,21.1875 C 210.99478,20.250027 209.88019,19.781278 208.48438,19.78125 C 207.10936,19.781278 206.03644,20.114611 205.26562,20.78125 C 204.47394,21.468776 204.07811,22.229192 204.07812,23.0625 C 204.07811,24.812523 203.98436,25.947938 203.79688,26.46875 C 203.6302,26.989604 203.35936,27.385437 202.98438,27.65625 C 202.60936,27.927103 202.14061,28.062519 201.57812,28.0625 C 200.76561,28.062519 200.14062,27.822936 199.70312,27.34375 C 199.07812,26.677104 198.76562,25.927105 198.76562,25.09375 C 198.76562,24.01044 199.14062,22.927108 199.89062,21.84375 C 200.66145,20.760443 201.85936,19.843778 203.48438,19.09375 C 205.13019,18.343779 207.04686,17.96878 209.23438,17.96875 C 211.81769,17.96878 213.7656,18.343779 215.07812,19.09375 C 216.3906,19.822944 217.25519,20.729193 217.67188,21.8125 C 218.67185,20.562527 219.72394,19.656278 220.82812,19.09375 C 222.30727,18.343779 224.05727,17.96878 226.07812,17.96875 C 229.07809,17.96878 231.51558,18.979195 233.39062,21 C 235.28642,23.020858 236.23433,25.937522 236.23438,29.75 L 218.42188,29.75 M 218.42188,27.71875 L 230.23438,27.71875 C 230.19268,25.093772 229.63018,23.187524 228.54688,22 C 227.48434,20.791693 226.11977,20.187527 224.45312,20.1875 C 222.78644,20.187527 221.36977,20.843777 220.20312,22.15625 C 219.05727,23.447941 218.46352,25.302105 218.42188,27.71875 M 214.54688,41.71875 C 214.10935,40.781257 213.75519,39.562508 213.48438,38.0625 C 213.21353,36.541678 213.0781,35.062512 213.07812,33.625 L 213.07812,30.84375 C 210.26561,31.718766 207.68228,33.052098 205.32812,34.84375 C 203.78645,36.031261 203.01561,37.552093 203.01562,39.40625 C 203.01561,41.05209 203.5052,42.395838 204.48438,43.4375 C 205.48436,44.47917 206.67186,45.000002 208.04688,45 C 208.85936,45.000002 209.71353,44.791669 210.60938,44.375 C 211.52603,43.937504 212.83853,43.052088 214.54688,41.71875" id="Ææ Ææ" style="fill:#000000;fill-opacity:1;stroke:none;stroke-width:1px;stroke-linecap:butt;stroke-linejoin:miter;stroke-opacity:1;"/>
</svg>